<mxfile host="app.diagrams.net" modified="2023-11-16T17:21:58.019Z" agent="Mozilla/5.0 (Windows NT 10.0; Win64; x64) AppleWebKit/537.36 (KHTML, like Gecko) Chrome/112.0.0.0 Safari/537.36" etag="s3chDcj1tmFwvknyVZ4b" version="22.1.2" type="device">
  <diagram name="Page-1" id="e7e014a7-5840-1c2e-5031-d8a46d1fe8dd">
    <mxGraphModel dx="1370" dy="1233" grid="1" gridSize="10" guides="1" tooltips="1" connect="1" arrows="1" fold="1" page="1" pageScale="1" pageWidth="2336" pageHeight="1654" background="none" math="0" shadow="0">
      <root>
        <mxCell id="0" />
        <mxCell id="1" parent="0" />
        <mxCell id="D-Lx7p1aY3kXvJlmbkiS-72" value="" style="edgeStyle=orthogonalEdgeStyle;html=1;verticalAlign=bottom;endArrow=open;endSize=8;strokeColor=#ff0000;rounded=0;entryX=0.5;entryY=0;entryDx=0;entryDy=0;" parent="1" source="D-Lx7p1aY3kXvJlmbkiS-71" target="D-Lx7p1aY3kXvJlmbkiS-73" edge="1">
          <mxGeometry relative="1" as="geometry">
            <mxPoint x="750" y="660" as="targetPoint" />
            <Array as="points">
              <mxPoint x="1070" y="610" />
              <mxPoint x="755" y="610" />
            </Array>
          </mxGeometry>
        </mxCell>
        <mxCell id="d7In405NPHHbh9jf6Zfo-1" value="Nature Hub Plant Ordering Online System" style="swimlane;whiteSpace=wrap;html=1;" parent="1" vertex="1">
          <mxGeometry x="470" y="140" width="620" height="1330" as="geometry" />
        </mxCell>
        <mxCell id="D-Lx7p1aY3kXvJlmbkiS-84" value="" style="shape=line;html=1;strokeWidth=6;strokeColor=#ff0000;" parent="d7In405NPHHbh9jf6Zfo-1" vertex="1">
          <mxGeometry x="-280" y="1200" width="900" height="10" as="geometry" />
        </mxCell>
        <mxCell id="D-Lx7p1aY3kXvJlmbkiS-88" value="" style="ellipse;html=1;shape=endState;fillColor=#000000;strokeColor=#ff0000;" parent="d7In405NPHHbh9jf6Zfo-1" vertex="1">
          <mxGeometry x="275" y="1290" width="30" height="30" as="geometry" />
        </mxCell>
        <mxCell id="D-Lx7p1aY3kXvJlmbkiS-73" value="Avalibility" style="rhombus;whiteSpace=wrap;html=1;fontColor=#000000;fillColor=#ffffc0;strokeColor=#ff0000;" parent="d7In405NPHHbh9jf6Zfo-1" vertex="1">
          <mxGeometry x="290" y="500" width="90" height="70" as="geometry" />
        </mxCell>
        <mxCell id="D-Lx7p1aY3kXvJlmbkiS-74" value="Yes" style="edgeStyle=orthogonalEdgeStyle;html=1;align=left;verticalAlign=bottom;endArrow=open;endSize=8;strokeColor=#ff0000;rounded=0;exitX=0;exitY=0.5;exitDx=0;exitDy=0;entryX=0.5;entryY=0;entryDx=0;entryDy=0;" parent="d7In405NPHHbh9jf6Zfo-1" source="D-Lx7p1aY3kXvJlmbkiS-73" target="D-Lx7p1aY3kXvJlmbkiS-78" edge="1">
          <mxGeometry x="-0.854" y="-5" relative="1" as="geometry">
            <mxPoint x="500" y="720" as="targetPoint" />
            <mxPoint x="390" y="570" as="sourcePoint" />
            <Array as="points">
              <mxPoint x="240" y="535" />
              <mxPoint x="240" y="700" />
              <mxPoint x="290" y="700" />
            </Array>
            <mxPoint as="offset" />
          </mxGeometry>
        </mxCell>
        <mxCell id="D-Lx7p1aY3kXvJlmbkiS-78" value="Pick a Plant" style="rounded=1;whiteSpace=wrap;html=1;arcSize=40;fontColor=#000000;fillColor=#ffffc0;strokeColor=#ff0000;" parent="d7In405NPHHbh9jf6Zfo-1" vertex="1">
          <mxGeometry x="230" y="720" width="120" height="40" as="geometry" />
        </mxCell>
        <mxCell id="D-Lx7p1aY3kXvJlmbkiS-80" value="Customize It" style="rounded=1;whiteSpace=wrap;html=1;arcSize=40;fontColor=#000000;fillColor=#ffffc0;strokeColor=#ff0000;" parent="d7In405NPHHbh9jf6Zfo-1" vertex="1">
          <mxGeometry x="230" y="820" width="120" height="40" as="geometry" />
        </mxCell>
        <mxCell id="D-Lx7p1aY3kXvJlmbkiS-81" value="" style="edgeStyle=orthogonalEdgeStyle;html=1;verticalAlign=bottom;endArrow=open;endSize=8;strokeColor=#ff0000;rounded=0;entryX=0.5;entryY=0;entryDx=0;entryDy=0;exitX=0.5;exitY=1;exitDx=0;exitDy=0;" parent="d7In405NPHHbh9jf6Zfo-1" source="D-Lx7p1aY3kXvJlmbkiS-80" edge="1" target="D-Lx7p1aY3kXvJlmbkiS-82">
          <mxGeometry relative="1" as="geometry">
            <mxPoint x="290" y="920" as="targetPoint" />
            <mxPoint x="290" y="880" as="sourcePoint" />
          </mxGeometry>
        </mxCell>
        <mxCell id="D-Lx7p1aY3kXvJlmbkiS-82" value="Comfirm Ordering" style="rounded=1;whiteSpace=wrap;html=1;arcSize=40;fontColor=#000000;fillColor=#ffffc0;strokeColor=#ff0000;" parent="d7In405NPHHbh9jf6Zfo-1" vertex="1">
          <mxGeometry x="230" y="940" width="120" height="40" as="geometry" />
        </mxCell>
        <mxCell id="D-Lx7p1aY3kXvJlmbkiS-95" value="" style="edgeStyle=orthogonalEdgeStyle;html=1;verticalAlign=bottom;endArrow=open;endSize=8;strokeColor=#ff0000;rounded=0;" parent="d7In405NPHHbh9jf6Zfo-1" edge="1">
          <mxGeometry relative="1" as="geometry">
            <mxPoint x="289" y="820" as="targetPoint" />
            <mxPoint x="289" y="760" as="sourcePoint" />
          </mxGeometry>
        </mxCell>
        <mxCell id="D-Lx7p1aY3kXvJlmbkiS-64" value="" style="shape=line;html=1;strokeWidth=6;strokeColor=#ff0000;" parent="d7In405NPHHbh9jf6Zfo-1" vertex="1">
          <mxGeometry x="-320" y="240" width="1080" height="10" as="geometry" />
        </mxCell>
        <mxCell id="0B0bKcSrF04HPGXSi_6T-3" value="&lt;div style=&quot;text-align: justify;&quot;&gt;The system checks the availability of select plants.&lt;/div&gt;(Admin can plants availability or not availability&amp;nbsp; change System.&lt;span style=&quot;text-align: justify; background-color: initial;&quot;&gt;)&amp;nbsp;&lt;/span&gt;&lt;br&gt;&lt;div style=&quot;text-align: justify;&quot;&gt;&lt;br&gt;&lt;/div&gt;" style="shape=note;whiteSpace=wrap;html=1;backgroundOutline=1;darkOpacity=0.05;align=left;" parent="d7In405NPHHbh9jf6Zfo-1" vertex="1">
          <mxGeometry x="170" y="300" width="210" height="140" as="geometry" />
        </mxCell>
        <mxCell id="0B0bKcSrF04HPGXSi_6T-4" value="" style="endArrow=classic;html=1;rounded=0;exitX=0;exitY=0;exitDx=0;exitDy=0;entryX=0.5;entryY=1;entryDx=0;entryDy=0;entryPerimeter=0;" parent="d7In405NPHHbh9jf6Zfo-1" source="D-Lx7p1aY3kXvJlmbkiS-73" target="0B0bKcSrF04HPGXSi_6T-3" edge="1">
          <mxGeometry width="50" height="50" relative="1" as="geometry">
            <mxPoint x="400" y="480" as="sourcePoint" />
            <mxPoint x="450" y="430" as="targetPoint" />
          </mxGeometry>
        </mxCell>
        <mxCell id="p9rLJVVDUtzbD-9kXD-B-3" value="Cash on Delivery" style="rounded=1;whiteSpace=wrap;html=1;arcSize=40;fontColor=#000000;fillColor=#ffffc0;strokeColor=#ff0000;" vertex="1" parent="d7In405NPHHbh9jf6Zfo-1">
          <mxGeometry x="230" y="1070" width="120" height="40" as="geometry" />
        </mxCell>
        <mxCell id="p9rLJVVDUtzbD-9kXD-B-10" value="" style="edgeStyle=orthogonalEdgeStyle;html=1;verticalAlign=bottom;endArrow=open;endSize=8;strokeColor=#ff0000;rounded=0;entryX=0.5;entryY=0;entryDx=0;entryDy=0;" edge="1" parent="d7In405NPHHbh9jf6Zfo-1" target="D-Lx7p1aY3kXvJlmbkiS-88">
          <mxGeometry relative="1" as="geometry">
            <mxPoint x="310" y="1320" as="targetPoint" />
            <mxPoint x="290" y="1205" as="sourcePoint" />
            <Array as="points">
              <mxPoint x="290" y="1250" />
              <mxPoint x="290" y="1250" />
            </Array>
          </mxGeometry>
        </mxCell>
        <mxCell id="p9rLJVVDUtzbD-9kXD-B-11" value="" style="edgeStyle=orthogonalEdgeStyle;html=1;verticalAlign=bottom;endArrow=open;endSize=8;strokeColor=#ff0000;rounded=0;exitX=0.5;exitY=1;exitDx=0;exitDy=0;" edge="1" parent="d7In405NPHHbh9jf6Zfo-1" source="p9rLJVVDUtzbD-9kXD-B-3">
          <mxGeometry relative="1" as="geometry">
            <mxPoint x="290" y="1200" as="targetPoint" />
            <mxPoint x="360" y="1140" as="sourcePoint" />
            <Array as="points">
              <mxPoint x="290" y="1150" />
              <mxPoint x="290" y="1150" />
            </Array>
          </mxGeometry>
        </mxCell>
        <mxCell id="d7In405NPHHbh9jf6Zfo-2" value="User" style="swimlane;whiteSpace=wrap;html=1;" parent="1" vertex="1">
          <mxGeometry x="1090" y="140" width="420" height="1330" as="geometry" />
        </mxCell>
        <mxCell id="D-Lx7p1aY3kXvJlmbkiS-62" value="User" style="rounded=1;whiteSpace=wrap;html=1;arcSize=40;fontColor=#000000;fillColor=#ffffc0;strokeColor=#ff0000;" parent="d7In405NPHHbh9jf6Zfo-2" vertex="1">
          <mxGeometry x="150" y="100" width="120" height="40" as="geometry" />
        </mxCell>
        <mxCell id="D-Lx7p1aY3kXvJlmbkiS-69" value="Select Category of Plant" style="rounded=1;whiteSpace=wrap;html=1;arcSize=40;fontColor=#000000;fillColor=#ffffc0;strokeColor=#ff0000;" parent="d7In405NPHHbh9jf6Zfo-2" vertex="1">
          <mxGeometry x="20" y="320" width="130" height="50" as="geometry" />
        </mxCell>
        <mxCell id="D-Lx7p1aY3kXvJlmbkiS-71" value="Select Plants" style="rounded=1;whiteSpace=wrap;html=1;arcSize=40;fontColor=#000000;fillColor=#ffffc0;strokeColor=#ff0000;" parent="d7In405NPHHbh9jf6Zfo-2" vertex="1">
          <mxGeometry x="20" y="410" width="120" height="40" as="geometry" />
        </mxCell>
        <mxCell id="D-Lx7p1aY3kXvJlmbkiS-70" value="" style="edgeStyle=orthogonalEdgeStyle;html=1;verticalAlign=bottom;endArrow=open;endSize=8;strokeColor=#ff0000;rounded=0;entryX=0.5;entryY=0;entryDx=0;entryDy=0;" parent="d7In405NPHHbh9jf6Zfo-2" target="D-Lx7p1aY3kXvJlmbkiS-71" edge="1">
          <mxGeometry relative="1" as="geometry">
            <mxPoint x="-220" y="423" as="targetPoint" />
            <mxPoint x="80" y="370" as="sourcePoint" />
          </mxGeometry>
        </mxCell>
        <mxCell id="d7In405NPHHbh9jf6Zfo-14" value="" style="ellipse;html=1;shape=startState;fillColor=#000000;strokeColor=#ff0000;" parent="d7In405NPHHbh9jf6Zfo-2" vertex="1">
          <mxGeometry x="200" y="40" width="30" height="30" as="geometry" />
        </mxCell>
        <mxCell id="d7In405NPHHbh9jf6Zfo-15" value="" style="edgeStyle=orthogonalEdgeStyle;html=1;verticalAlign=bottom;endArrow=open;endSize=8;strokeColor=#ff0000;rounded=0;" parent="d7In405NPHHbh9jf6Zfo-2" edge="1">
          <mxGeometry relative="1" as="geometry">
            <mxPoint x="79" y="320" as="targetPoint" />
            <mxPoint x="80" y="250" as="sourcePoint" />
            <Array as="points">
              <mxPoint x="79.23" y="290" />
              <mxPoint x="79.23" y="290" />
            </Array>
          </mxGeometry>
        </mxCell>
        <mxCell id="d7In405NPHHbh9jf6Zfo-18" value="" style="edgeStyle=orthogonalEdgeStyle;html=1;verticalAlign=bottom;endArrow=open;endSize=8;strokeColor=#ff0000;rounded=0;" parent="d7In405NPHHbh9jf6Zfo-2" edge="1">
          <mxGeometry relative="1" as="geometry">
            <mxPoint x="214" y="100" as="targetPoint" />
            <mxPoint x="214.23000000000002" y="70" as="sourcePoint" />
          </mxGeometry>
        </mxCell>
        <mxCell id="d7In405NPHHbh9jf6Zfo-19" value="" style="edgeStyle=orthogonalEdgeStyle;html=1;verticalAlign=bottom;endArrow=open;endSize=8;strokeColor=#ff0000;rounded=0;" parent="d7In405NPHHbh9jf6Zfo-2" target="D-Lx7p1aY3kXvJlmbkiS-64" edge="1">
          <mxGeometry relative="1" as="geometry">
            <mxPoint x="-200" y="220" as="targetPoint" />
            <mxPoint x="214.23000000000002" y="140" as="sourcePoint" />
            <Array as="points">
              <mxPoint x="214" y="170" />
              <mxPoint x="-209" y="170" />
            </Array>
          </mxGeometry>
        </mxCell>
        <mxCell id="D-Lx7p1aY3kXvJlmbkiS-76" value="Select&amp;nbsp; Options" style="rounded=1;whiteSpace=wrap;html=1;arcSize=40;fontColor=#000000;fillColor=#ffffc0;strokeColor=#ff0000;" parent="d7In405NPHHbh9jf6Zfo-2" vertex="1">
          <mxGeometry x="20" y="590" width="120" height="40" as="geometry" />
        </mxCell>
        <mxCell id="0B0bKcSrF04HPGXSi_6T-1" value="User can select another category&amp;nbsp; plants." style="shape=note;whiteSpace=wrap;html=1;backgroundOutline=1;darkOpacity=0.05;" parent="d7In405NPHHbh9jf6Zfo-2" vertex="1">
          <mxGeometry x="180" y="580" width="170" height="100" as="geometry" />
        </mxCell>
        <mxCell id="0B0bKcSrF04HPGXSi_6T-2" value="" style="endArrow=classic;html=1;rounded=0;exitX=1;exitY=0.5;exitDx=0;exitDy=0;" parent="d7In405NPHHbh9jf6Zfo-2" source="D-Lx7p1aY3kXvJlmbkiS-76" edge="1">
          <mxGeometry width="50" height="50" relative="1" as="geometry">
            <mxPoint x="130" y="680" as="sourcePoint" />
            <mxPoint x="180" y="630" as="targetPoint" />
          </mxGeometry>
        </mxCell>
        <mxCell id="D-Lx7p1aY3kXvJlmbkiS-75" value="No" style="edgeStyle=orthogonalEdgeStyle;html=1;align=left;verticalAlign=top;endArrow=open;endSize=8;strokeColor=#ff0000;rounded=0;exitX=1;exitY=0.5;exitDx=0;exitDy=0;entryX=0.5;entryY=0;entryDx=0;entryDy=0;" parent="1" source="D-Lx7p1aY3kXvJlmbkiS-73" target="D-Lx7p1aY3kXvJlmbkiS-76" edge="1">
          <mxGeometry x="-0.9167" y="-5" relative="1" as="geometry">
            <mxPoint x="800" y="740" as="targetPoint" />
            <mxPoint as="offset" />
          </mxGeometry>
        </mxCell>
        <mxCell id="D-Lx7p1aY3kXvJlmbkiS-77" value="" style="edgeStyle=orthogonalEdgeStyle;html=1;verticalAlign=bottom;endArrow=open;endSize=8;strokeColor=#ff0000;rounded=0;entryX=0.5;entryY=1;entryDx=0;entryDy=0;" parent="1" source="D-Lx7p1aY3kXvJlmbkiS-76" target="D-Lx7p1aY3kXvJlmbkiS-73" edge="1">
          <mxGeometry relative="1" as="geometry">
            <mxPoint x="810" y="720" as="targetPoint" />
            <Array as="points">
              <mxPoint x="805" y="750" />
            </Array>
          </mxGeometry>
        </mxCell>
        <mxCell id="p9rLJVVDUtzbD-9kXD-B-9" value="" style="edgeStyle=orthogonalEdgeStyle;html=1;verticalAlign=bottom;endArrow=open;endSize=8;strokeColor=#ff0000;rounded=0;entryX=0.5;entryY=0;entryDx=0;entryDy=0;" edge="1" parent="1" target="p9rLJVVDUtzbD-9kXD-B-3">
          <mxGeometry relative="1" as="geometry">
            <mxPoint x="760" y="1190" as="targetPoint" />
            <mxPoint x="760" y="1120" as="sourcePoint" />
            <Array as="points" />
          </mxGeometry>
        </mxCell>
        <mxCell id="p9rLJVVDUtzbD-9kXD-B-12" value="Admin" style="swimlane;whiteSpace=wrap;html=1;" vertex="1" parent="1">
          <mxGeometry y="140" width="470" height="1330" as="geometry" />
        </mxCell>
        <mxCell id="d7In405NPHHbh9jf6Zfo-11" value="" style="edgeStyle=orthogonalEdgeStyle;html=1;verticalAlign=bottom;endArrow=open;endSize=8;strokeColor=#ff0000;rounded=0;exitX=0.5;exitY=1;exitDx=0;exitDy=0;" parent="p9rLJVVDUtzbD-9kXD-B-12" source="p9rLJVVDUtzbD-9kXD-B-41" edge="1">
          <mxGeometry relative="1" as="geometry">
            <mxPoint x="260" y="1200" as="targetPoint" />
            <mxPoint x="260" y="870" as="sourcePoint" />
          </mxGeometry>
        </mxCell>
        <mxCell id="p9rLJVVDUtzbD-9kXD-B-34" value="plant availability" style="rounded=1;whiteSpace=wrap;html=1;arcSize=40;fontColor=#000000;fillColor=#ffffc0;strokeColor=#ff0000;" vertex="1" parent="p9rLJVVDUtzbD-9kXD-B-12">
          <mxGeometry x="200" y="500" width="120" height="40" as="geometry" />
        </mxCell>
        <mxCell id="p9rLJVVDUtzbD-9kXD-B-33" value="Order&lt;br&gt;cancel" style="rounded=1;whiteSpace=wrap;html=1;arcSize=40;fontColor=#000000;fillColor=#ffffc0;strokeColor=#ff0000;" vertex="1" parent="p9rLJVVDUtzbD-9kXD-B-12">
          <mxGeometry x="200" y="330" width="120" height="40" as="geometry" />
        </mxCell>
        <mxCell id="p9rLJVVDUtzbD-9kXD-B-35" value="" style="edgeStyle=orthogonalEdgeStyle;html=1;verticalAlign=bottom;endArrow=open;endSize=8;strokeColor=#ff0000;rounded=0;" edge="1" parent="p9rLJVVDUtzbD-9kXD-B-12">
          <mxGeometry relative="1" as="geometry">
            <mxPoint x="260" y="500" as="targetPoint" />
            <mxPoint x="260" y="370" as="sourcePoint" />
          </mxGeometry>
        </mxCell>
        <mxCell id="p9rLJVVDUtzbD-9kXD-B-37" value="&lt;div style=&quot;text-align: center;&quot;&gt;Admin can plants availability or not availability&amp;nbsp; change System.&lt;br&gt;&lt;/div&gt;" style="shape=note;whiteSpace=wrap;html=1;backgroundOutline=1;darkOpacity=0.05;align=left;" vertex="1" parent="p9rLJVVDUtzbD-9kXD-B-12">
          <mxGeometry x="10" y="490" width="150" height="120" as="geometry" />
        </mxCell>
        <mxCell id="p9rLJVVDUtzbD-9kXD-B-38" value="" style="endArrow=classic;html=1;rounded=0;entryX=1;entryY=1;entryDx=0;entryDy=0;entryPerimeter=0;exitX=0.083;exitY=1;exitDx=0;exitDy=0;exitPerimeter=0;" edge="1" parent="p9rLJVVDUtzbD-9kXD-B-12" source="p9rLJVVDUtzbD-9kXD-B-34" target="p9rLJVVDUtzbD-9kXD-B-37">
          <mxGeometry width="50" height="50" relative="1" as="geometry">
            <mxPoint x="210" y="530" as="sourcePoint" />
            <mxPoint x="362" y="352" as="targetPoint" />
          </mxGeometry>
        </mxCell>
        <mxCell id="p9rLJVVDUtzbD-9kXD-B-39" value="Add/Update/Delete Category" style="rounded=1;whiteSpace=wrap;html=1;arcSize=40;fontColor=#000000;fillColor=#ffffc0;strokeColor=#ff0000;" vertex="1" parent="p9rLJVVDUtzbD-9kXD-B-12">
          <mxGeometry x="200" y="610" width="120" height="40" as="geometry" />
        </mxCell>
        <mxCell id="p9rLJVVDUtzbD-9kXD-B-40" value="Add/Update/Delete Plant" style="rounded=1;whiteSpace=wrap;html=1;arcSize=40;fontColor=#000000;fillColor=#ffffc0;strokeColor=#ff0000;" vertex="1" parent="p9rLJVVDUtzbD-9kXD-B-12">
          <mxGeometry x="200" y="710" width="120" height="40" as="geometry" />
        </mxCell>
        <mxCell id="p9rLJVVDUtzbD-9kXD-B-41" value="Add/Update/Delete Admin" style="rounded=1;whiteSpace=wrap;html=1;arcSize=40;fontColor=#000000;fillColor=#ffffc0;strokeColor=#ff0000;" vertex="1" parent="p9rLJVVDUtzbD-9kXD-B-12">
          <mxGeometry x="200" y="800" width="120" height="40" as="geometry" />
        </mxCell>
        <mxCell id="p9rLJVVDUtzbD-9kXD-B-42" value="&lt;div style=&quot;text-align: center;&quot;&gt;Admin can Update System.&lt;br&gt;&lt;/div&gt;&lt;div style=&quot;text-align: center;&quot;&gt;&lt;ul&gt;&lt;li&gt;Order cancelled&lt;/li&gt;&lt;li&gt;Order Delivered&lt;/li&gt;&lt;li&gt;&amp;nbsp; &amp;nbsp;Order On Delivery&lt;/li&gt;&lt;li&gt;Order Ordered&lt;/li&gt;&lt;/ul&gt;&lt;/div&gt;" style="shape=note;whiteSpace=wrap;html=1;backgroundOutline=1;darkOpacity=0.05;align=left;" vertex="1" parent="p9rLJVVDUtzbD-9kXD-B-12">
          <mxGeometry x="10" y="280" width="160" height="160" as="geometry" />
        </mxCell>
        <mxCell id="p9rLJVVDUtzbD-9kXD-B-43" value="" style="endArrow=classic;html=1;rounded=0;exitX=0;exitY=0.75;exitDx=0;exitDy=0;entryX=1.006;entryY=0.425;entryDx=0;entryDy=0;entryPerimeter=0;" edge="1" parent="p9rLJVVDUtzbD-9kXD-B-12" source="p9rLJVVDUtzbD-9kXD-B-33" target="p9rLJVVDUtzbD-9kXD-B-42">
          <mxGeometry width="50" height="50" relative="1" as="geometry">
            <mxPoint x="190" y="410" as="sourcePoint" />
            <mxPoint x="150" y="460" as="targetPoint" />
          </mxGeometry>
        </mxCell>
        <mxCell id="p9rLJVVDUtzbD-9kXD-B-44" value="" style="edgeStyle=orthogonalEdgeStyle;html=1;verticalAlign=bottom;endArrow=open;endSize=8;strokeColor=#ff0000;rounded=0;" edge="1" parent="p9rLJVVDUtzbD-9kXD-B-12">
          <mxGeometry relative="1" as="geometry">
            <mxPoint x="260" y="610" as="targetPoint" />
            <mxPoint x="260" y="540" as="sourcePoint" />
            <Array as="points">
              <mxPoint x="260" y="560" />
              <mxPoint x="260" y="560" />
            </Array>
          </mxGeometry>
        </mxCell>
        <mxCell id="p9rLJVVDUtzbD-9kXD-B-46" value="" style="edgeStyle=orthogonalEdgeStyle;html=1;verticalAlign=bottom;endArrow=open;endSize=8;strokeColor=#ff0000;rounded=0;" edge="1" parent="p9rLJVVDUtzbD-9kXD-B-12">
          <mxGeometry relative="1" as="geometry">
            <mxPoint x="260" y="800" as="targetPoint" />
            <mxPoint x="259.5" y="750" as="sourcePoint" />
            <Array as="points">
              <mxPoint x="259.5" y="756" />
            </Array>
          </mxGeometry>
        </mxCell>
        <mxCell id="p9rLJVVDUtzbD-9kXD-B-45" value="" style="edgeStyle=orthogonalEdgeStyle;html=1;verticalAlign=bottom;endArrow=open;endSize=8;strokeColor=#ff0000;rounded=0;" edge="1" parent="p9rLJVVDUtzbD-9kXD-B-12">
          <mxGeometry relative="1" as="geometry">
            <mxPoint x="260" y="710" as="targetPoint" />
            <mxPoint x="259.5" y="650" as="sourcePoint" />
            <Array as="points">
              <mxPoint x="259.5" y="660" />
              <mxPoint x="259.5" y="660" />
            </Array>
          </mxGeometry>
        </mxCell>
        <mxCell id="d7In405NPHHbh9jf6Zfo-20" value="" style="edgeStyle=orthogonalEdgeStyle;html=1;verticalAlign=bottom;endArrow=open;endSize=8;strokeColor=#ff0000;rounded=0;entryX=0.5;entryY=0;entryDx=0;entryDy=0;" parent="1" edge="1" target="p9rLJVVDUtzbD-9kXD-B-33">
          <mxGeometry relative="1" as="geometry">
            <mxPoint x="210" y="440" as="targetPoint" />
            <mxPoint x="260" y="385" as="sourcePoint" />
            <Array as="points">
              <mxPoint x="260" y="391" />
            </Array>
          </mxGeometry>
        </mxCell>
      </root>
    </mxGraphModel>
  </diagram>
</mxfile>
